<svg xmlns="http://www.w3.org/2000/svg" viewBox="0 0 128 128" role="img" aria-label="Bili-Cat">
  <title>Bili-Cat</title>

  <!-- 经典小电视天线 / classic TV antennae -->
  <g stroke="#fb7299" stroke-width="8" stroke-linecap="round" fill="none">
    <path d="M52 40 L30 12" />
    <path d="M76 40 L98 12" />
  </g>

  <!-- 电视机身 -->
  <rect x="10" y="36" width="108" height="78" rx="24" fill="#fb7299" />

  <!-- 招牌白色竖条眼睛 -->
  <rect x="38.5" y="54" width="15" height="30" rx="7.5" fill="#ffffff" />
  <rect x="74.5" y="54" width="15" height="30" rx="7.5" fill="#ffffff" />

  <!-- 猫竖瞳 -->
  <ellipse cx="46" cy="69" rx="2.6" ry="8" fill="#3a2c33" />
  <ellipse cx="82" cy="69" rx="2.6" ry="8" fill="#3a2c33" />
  <circle cx="47.2" cy="65" r="1.3" fill="#ffffff" />
  <circle cx="83.2" cy="65" r="1.3" fill="#ffffff" />

  <!-- 猫鼻 + ω 嘴 -->
  <path d="M59.5 87 L68.5 87 L64 92.5 Z" fill="#ffffff" />
  <path d="M64 92.5 C64 97 58.5 98 57 94.5" fill="none" stroke="#ffffff" stroke-width="2.8" stroke-linecap="round" />
  <path d="M64 92.5 C64 97 69.5 98 71 94.5" fill="none" stroke="#ffffff" stroke-width="2.8" stroke-linecap="round" />

  <!-- 猫须 -->
  <g stroke="#ffffff" stroke-width="2.4" stroke-linecap="round" opacity="0.92">
    <path d="M15 81 L33 85" />
    <path d="M15 93 L33 93" />
    <path d="M95 85 L113 81" />
    <path d="M95 93 L113 93" />
  </g>
</svg>
